<svg width="415.925px" height="120.8px" xmlns="http://www.w3.org/2000/svg" viewBox="42.037499999999994 14.600000000000001 415.925 120.8" style="background: rgba(0, 0, 0, 0);" 
	 preserveAspectRatio="xMidYMid"><defs><filter id="editing-extrude-glow"><feFlood flood-color="#333333" result="flood-1"></feFlood><feMorphology operator="erode" radius="1" 
in="SourceAlpha" result="erode"></feMorphology><feComposite operator="in" in="flood-1" in2="erode" result="comp1"></feComposite><feConvolveMatrix order="3,3" divisor="1" in="comp1" result="convolve" 
kernelMatrix="0 0 0 1 1 1 0 0 0"></feConvolveMatrix><feOffset dx="-3" dy="0" in="convolve" result="extrude"></feOffset><feComposite operator="in" in="flood-1" in2="extrude" result="comp-extrude">
	
</feComposite><feFlood flood-color="#000000" result="flood-2"></feFlood><feComposite operator="in" in="flood-2" in2="SourceAlpha" result="comp2">
	
</feComposite><feMorphology operator="dilate" radius="1" in="comp2" result="dilate"></feMorphology><feOffset dx="-4.5" dy="0" in="dilate" result="offset"></feOffset>
		 <feGaussianBlur in="offset" stdDeviation="5.8" result="blur"></feGaussianBlur><feComponentTransfer in="blur" result="shadow"><feFuncA type="linear" slope="0.8" intercept="-0.2"></feFuncA>
		 </feComponentTransfer><feMerge><feMergeNode in="shadow"></feMergeNode><feMergeNode in="comp-extrude"></feMergeNode><feMergeNode in="SourceGraphic"></feMergeNode></feMerge></filter></defs>
	<g filter="url(#editing-extrude-glow)"><g transform="translate(105.3600332736969, 99.00000190734863)">
		<path d="M14.14 0L0.51 0L7.81-38.91L8.51-42.24L22.21-42.24L14.14 0ZM40.13-3.78L40.13-3.78L40.13-3.78Q38.40 1.28 31.74 1.28L31.74 1.28L31.74 1.28Q26.82 1.28 23.42-4.61L23.42-4.61L23.42-4.61Q19.97-10.50 19.33-20.10L19.33-20.10L19.33-20.10Q26.37-32.96 31.23-38.27L31.23-38.27L31.23-38.27Q35.90-43.33 40.77-43.33L40.77-43.33L40.77-43.33Q43.39-43.33 45.28-41.92L45.28-41.92L45.28-41.92Q47.17-40.51 47.62-38.27L47.62-38.27L47.62-38.27Q45.44-37.38 44.42-36.67L44.42-36.67L44.42-36.67Q41.86-34.75 38.40-30.46L38.40-30.46L32.58-23.49L32.58-23.49Q31.17-21.82 30.59-21.06L30.59-21.06L30.59-21.06Q31.55-15.68 34.43-10.37L34.43-10.37L34.43-10.37Q37.18-5.31 40.13-3.78ZM60.93-3.52L60.93-3.52L60.93-3.52Q58.94 1.28 52.61 1.28L52.61 1.28L52.61 1.28Q49.34 1.28 47.30-0.96L47.30-0.96L47.30-0.96Q45.57-2.94 45.57-4.93L45.57-4.93L45.57-4.93Q45.57-10.11 47.94-20.22L47.94-20.22L50.30-32.64L63.30-33.92L59.39-13.70L59.39-13.70Q58.30-8.96 58.30-7.30L58.30-7.30L58.30-7.30Q58.30-3.65 60.93-3.52ZM51.46-41.54L51.46-41.54L51.46-41.54Q51.46-44.03 53.54-45.38L53.54-45.38L53.54-45.38Q55.62-46.72 58.62-46.72L58.62-46.72L58.62-46.72Q61.63-46.72 63.46-45.38L63.46-45.38L63.46-45.38Q65.28-44.03 65.28-41.54L65.28-41.54L65.28-41.54Q65.28-39.04 63.26-37.76L63.26-37.76L63.26-37.76Q61.25-36.48 58.24-36.48L58.24-36.48L58.24-36.48Q55.23-36.48 53.34-37.76L53.34-37.76L53.34-37.76Q51.46-39.04 51.46-41.54ZM86.40-17.98L86.40-17.98L86.40-17.98Q88.70-22.08 88.70-26.24L88.70-26.24L88.70-26.24Q88.70-28.99 86.72-28.99L86.72-28.99L86.72-28.99Q85.18-28.99 83.58-26.37L83.58-26.37L83.58-26.37Q81.92-23.74 81.41-20.35L81.41-20.35L78.08 0L64.83 1.28L71.36-32.64L81.92-33.92L80.77-27.46L80.77-27.46Q83.90-33.92 90.94-33.92L90.94-33.92L90.94-33.92Q94.66-33.92 96.67-32L96.67-32L96.67-32Q98.69-30.08 98.69-26.14L98.69-26.14L98.69-26.14Q98.69-22.21 96.10-19.71L96.10-19.71L96.10-19.71Q93.50-17.22 89.09-17.22L89.09-17.22L89.09-17.22Q87.17-17.22 86.40-17.98ZM115.07-3.52L115.07-3.52L115.07-3.52Q113.09 1.28 106.75 1.28L106.75 1.28L106.75 1.28Q103.49 1.28 101.44-0.96L101.44-0.96L101.44-0.96Q99.71-2.94 99.71-4.93L99.71-4.93L99.71-4.93Q99.71-10.11 102.08-20.22L102.08-20.22L104.45-32.64L117.44-33.92L113.54-13.70L113.54-13.70Q112.45-8.96 112.45-7.30L112.45-7.30L112.45-7.30Q112.45-3.65 115.07-3.52ZM105.60-41.54L105.60-41.54L105.60-41.54Q105.60-44.03 107.68-45.38L107.68-45.38L107.68-45.38Q109.76-46.72 112.77-46.72L112.77-46.72L112.77-46.72Q115.78-46.72 117.60-45.38L117.60-45.38L117.60-45.38Q119.42-44.03 119.42-41.54L119.42-41.54L119.42-41.54Q119.42-39.04 117.41-37.76L117.41-37.76L117.41-37.76Q115.39-36.48 112.38-36.48L112.38-36.48L112.38-36.48Q109.38-36.48 107.49-37.76L107.49-37.76L107.49-37.76Q105.60-39.04 105.60-41.54ZM126.59 0L130.30-18.82L130.30-18.82Q128.45-36.16 121.92-39.87L121.92-39.87L121.92-39.87Q123.26-41.54 125.44-42.46L125.44-42.46L125.44-42.46Q127.62-43.39 130.24-43.39L130.24-43.39L130.24-43.39Q132.86-43.39 134.85-42.46L134.85-42.46L134.85-42.46Q136.83-41.54 138.11-39.55L138.11-39.55L138.11-39.55Q140.54-35.78 140.54-26.75L140.54-26.75L140.54-22.14L140.54-22.14Q144.38-33.41 148.22-38.27L148.22-38.27L148.22-38.27Q152.13-43.26 156.99-43.26L156.99-43.26L156.99-43.26Q158.91-43.26 160.19-42.27L160.19-42.27L160.19-42.27Q161.47-41.28 162.11-39.81L162.11-39.81L162.11-39.81Q157.18-37.63 152.45-31.36L152.45-31.36L152.45-31.36Q147.71-25.09 144.64-16.32L144.64-16.32L140.86 0L126.59 0ZM158.30-1.92L158.30-1.92L158.30-1.92Q156.80-3.58 156.13-6.21L156.13-6.21L156.13-6.21Q155.46-8.83 155.46-13.12L155.46-13.12L155.46-13.12Q155.46-17.41 156.93-21.31L156.93-21.31L156.93-21.31Q158.40-25.22 161.09-28.03L161.09-28.03L161.09-28.03Q166.59-33.92 175.68-33.92L175.68-33.92L175.68-33.92Q178.94-33.92 181.31-32.83L181.31-32.83L192.26-33.92L187.52-8.96L187.52-8.96Q187.33-8.19 187.33-6.78L187.33-6.78L187.33-6.78Q187.33-5.38 188.19-4.48L188.19-4.48L188.19-4.48Q189.06-3.58 190.34-3.46L190.34-3.46L190.34-3.46Q189.70-1.28 187.36 0L187.36 0L187.36 0Q185.02 1.28 182.40 1.28L182.40 1.28L182.40 1.28Q179.78 1.28 178.02 0.29L178.02 0.29L178.02 0.29Q176.26-0.70 175.74-2.37L175.74-2.37L175.74-2.37Q174.72-0.77 172.54 0.26L172.54 0.26L172.54 0.26Q170.37 1.28 167.46 1.28L167.46 1.28L167.46 1.28Q164.54 1.28 162.18 0.51L162.18 0.51L162.18 0.51Q159.81-0.26 158.30-1.92ZM171.81-27.90L171.81-27.90L171.81-27.90Q171.07-26.75 170.43-24.80L170.43-24.80L170.43-24.80Q169.79-22.85 168.74-17.63L168.74-17.63L168.74-17.63Q167.68-12.42 167.68-8.70L167.68-8.70L167.68-8.70Q167.68-4.99 168.26-3.90L168.26-3.90L168.26-3.90Q168.83-2.82 169.86-2.82L169.86-2.82L169.86-2.82Q171.90-2.82 173.41-4.77L173.41-4.77L173.41-4.77Q174.91-6.72 175.49-10.18L175.49-10.18L178.88-28.93L178.88-28.93Q177.54-30.08 175.97-30.08L175.97-30.08L175.97-30.08Q174.40-30.08 173.47-29.57L173.47-29.57L173.47-29.57Q172.54-29.06 171.81-27.90ZM201.15 0L193.79 0L205.38-42.24L218.75-42.24L221.70-18.11L233.60-42.24L244.80-42.24L245.95-10.62L245.95-10.62Q246.21-4.35 249.28-2.43L249.28-2.43L249.28-2.43Q248.58-1.15 246.53 0.06L246.53 0.06L246.53 0.06Q244.48 1.28 241.76 1.28L241.76 1.28L241.76 1.28Q239.04 1.28 237.44 0.51L237.44 0.51L237.44 0.51Q235.84-0.26 234.94-1.54L234.94-1.54L234.94-1.54Q233.34-3.84 233.34-8.26L233.34-8.26L233.34-28.03L220.74 0L212.80 0L208.32-28.74L201.15 0ZM254.82-1.92L254.82-1.92L254.82-1.92Q253.31-3.58 252.64-6.21L252.64-6.21L252.64-6.21Q251.97-8.83 251.97-13.12L251.97-13.12L251.97-13.12Q251.97-17.41 253.44-21.31L253.44-21.31L253.44-21.31Q254.91-25.22 257.60-28.03L257.60-28.03L257.60-28.03Q263.10-33.92 272.19-33.92L272.19-33.92L272.19-33.92Q275.46-33.92 277.82-32.83L277.82-32.83L288.77-33.92L284.03-8.96L284.03-8.96Q283.84-8.19 283.84-6.78L283.84-6.78L283.84-6.78Q283.84-5.38 284.70-4.48L284.70-4.48L284.70-4.48Q285.57-3.58 286.85-3.46L286.85-3.46L286.85-3.46Q286.21-1.28 283.87 0L283.87 0L283.87 0Q281.54 1.28 278.91 1.28L278.91 1.28L278.91 1.28Q276.29 1.28 274.53 0.29L274.53 0.29L274.53 0.29Q272.77-0.70 272.26-2.37L272.26-2.37L272.26-2.37Q271.23-0.77 269.06 0.26L269.06 0.26L269.06 0.26Q266.88 1.28 263.97 1.28L263.97 1.28L263.97 1.28Q261.06 1.28 258.69 0.51L258.69 0.51L258.69 0.51Q256.32-0.26 254.82-1.92ZM268.32-27.90L268.32-27.90L268.32-27.90Q267.58-26.75 266.94-24.80L266.94-24.80L266.94-24.80Q266.30-22.85 265.25-17.63L265.25-17.63L265.25-17.63Q264.19-12.42 264.19-8.70L264.19-8.70L264.19-8.70Q264.19-4.99 264.77-3.90L264.77-3.90L264.77-3.90Q265.34-2.82 266.37-2.82L266.37-2.82L266.37-2.82Q268.42-2.82 269.92-4.77L269.92-4.77L269.92-4.77Q271.42-6.72 272-10.18L272-10.18L275.39-28.93L275.39-28.93Q274.05-30.08 272.48-30.08L272.48-30.08L272.48-30.08Q270.91-30.08 269.98-29.57L269.98-29.57L269.98-29.57Q269.06-29.06 268.32-27.90Z" fill="#eb6c6c"></path></g></g><style>text {
  font-size: 64px;
  font-family: Arial Black;
  dominant-baseline: central;
  text-anchor: middle;
}</style></svg>